<?xml version="1.0" standalone="no"?>
<!DOCTYPE svg PUBLIC "-//W3C//DTD SVG 1.1//EN" "http://www.w3.org/Graphics/SVG/1.1/DTD/svg11.dtd" >
<svg>
<metadata>
Created by FontForge 20110222 at Mon Mar  7 08:18:17 2011
 By www-data
Copyright [c] 2008 by ShyFoundry. All rights reserved. Freeware for personal use only. To purchase a commercial license, please visit our site at http://www.shyfoundry.com.
</metadata>
<defs>
<font id="SFAutomaton-Oblique" horiz-adv-x="633" >
  <font-face 
    font-family="SF Automaton"
    font-weight="400"
    font-style="oblique"
    font-stretch="normal"
    units-per-em="1000"
    panose-1="2 0 5 3 0 0 0 0 0 0"
    ascent="800"
    descent="-200"
    x-height="667"
    cap-height="667"
    bbox="-35 -166 1135 900"
    underline-thickness="10"
    underline-position="-70"
    unicode-range="U+0021-2122"
  />
    <missing-glyph />
    <glyph glyph-name="dollar" unicode="$" 
d="M482 227c0 23 -16 40 -37 40h-48l-21 -100h48c29 0 55 26 58 60zM399 500h-47c-30 0 -56 -26 -59 -60c0 -23 16 -40 37 -40h47zM412 0h-71l-18 -83h-48l17 83h-213l36 167h213l21 100h-71c-49 0 -88 20 -115 60c-20 29 -30 60 -30 95c0 123 114 245 230 245h71l18 83h48
l-18 -83h214l-35 -167h-214l-21 -100h71c49 0 88 -20 114 -61c20 -29 30 -60 30 -95c0 -123 -114 -244 -229 -244z" />
    <glyph glyph-name="percent" unicode="%" horiz-adv-x="871" 
d="M422 540c0 17 -3 33 -25 33h-115c-17 0 -35 -15 -38 -33l-26 -122c0 -23 4 -32 24 -32h115c18 0 36 14 39 32zM795 249c0 21 -5 33 -24 33h-116c-16 0 -34 -16 -38 -33l-26 -123c0 -22 6 -32 24 -32h116c17 0 34 14 38 32zM856 118c-12 -65 -74 -118 -136 -118h-134
c-51 0 -89 39 -89 91c0 9 1 17 3 27l30 139c1 7 2 10 8 24l-261 -281h-159l284 305c-18 -9 -37 -13 -56 -13h-134c-51 0 -89 38 -89 90c0 9 1 18 3 27l30 140c14 65 74 118 136 118h134c37 8 89 -36 89 -91c0 -9 0 -17 -2 -27l-31 -140c-1 -7 -3 -15 -7 -23l260 281h159
l-283 -305c19 9 37 13 56 13h133c47 5 89 -39 89 -91c0 -9 0 -17 -2 -27z" />
    <glyph glyph-name="ampersand" unicode="&#x26;" 
d="M492 267h-190c-30 0 -55 -27 -59 -60c0 -23 17 -40 38 -40h190zM222 0c-66 0 -148 46 -148 147c0 80 44 149 118 186c-37 24 -56 59 -56 104c0 117 112 230 227 230h340l-35 -167h-316c-30 0 -56 -26 -59 -60c0 -23 16 -40 37 -40h348l-85 -400h-371z" />
    <glyph glyph-name="quotesingle" unicode="'" horiz-adv-x="198" 
d="M224 458h-56l13 209h119z" />
    <glyph glyph-name="parenleft" unicode="(" horiz-adv-x="317" 
d="M141 -83c-38 86 -49 142 -52 233c0 223 78 425 228 600h119c-137 -143 -228 -384 -228 -600c0 -76 16 -149 51 -233h-118z" />
    <glyph glyph-name="parenright" unicode=")" horiz-adv-x="317" 
d="M141 -83h-120c152 177 218 345 229 596c0 78 -17 156 -52 237h119c37 -84 49 -139 52 -233c0 -224 -80 -426 -228 -600z" />
    <glyph glyph-name="asterisk" unicode="*" horiz-adv-x="479" 
d="M447 303l-73 71l-26 -124h-111l26 124l-104 -71l-34 102l117 53l-94 54l77 101l73 -71l27 125h111l-27 -125l104 71l34 -101l-115 -54l92 -53z" />
    <glyph glyph-name="plus" unicode="+" horiz-adv-x="475" 
d="M357 267l-29 -142h-127l30 142h-135l28 133h135l30 142h127l-30 -142h134l-28 -133h-135z" />
    <glyph glyph-name="comma" unicode="," horiz-adv-x="198" 
d="M109 -83h-56l13 208h119z" />
    <glyph glyph-name="hyphen" unicode="-" horiz-adv-x="475" 
d="M96 267l28 133h396l-28 -133h-396z" />
    <glyph glyph-name="period" unicode="." horiz-adv-x="198" 
d="M39 0l27 125h119l-27 -125h-119z" />
    <glyph glyph-name="slash" unicode="/" horiz-adv-x="399" 
d="M137 -84l-109 31l377 804l108 -31z" />
    <glyph glyph-name="zero" unicode="0" horiz-adv-x="593" 
d="M529 442c0 40 -9 58 -42 58h-167c-31 0 -61 -26 -68 -58l-48 -231c0 -26 19 -44 45 -44h167c30 0 59 25 66 58zM638 208c-25 -116 -133 -208 -242 -208h-198c-54 0 -96 20 -127 61c-21 30 -32 63 -32 101c0 15 2 30 5 46l54 250c24 116 132 209 242 209h198
c88 3 158 -69 158 -162c0 -15 -2 -31 -5 -47z" />
    <glyph glyph-name="one" unicode="1" horiz-adv-x="222" 
d="M32 0l141 667h159l-142 -667h-158z" />
    <glyph glyph-name="two" unicode="2" 
d="M507 267h-244c-26 0 -53 -23 -59 -50l-10 -50h435l-36 -167h-593l42 200c22 103 120 200 226 200h245c30 0 55 24 59 61c0 21 -15 39 -38 39h-388l35 167h411c81 3 145 -67 145 -157c0 -122 -114 -243 -230 -243z" />
    <glyph glyph-name="three" unicode="3" horiz-adv-x="593" 
d="M412 0h-412l36 167h388c29 0 55 26 58 60c0 23 -16 40 -37 40h-309l28 133h309c31 0 55 25 59 61c0 21 -17 39 -37 39h-357l35 167h380c65 0 146 -47 146 -147c0 -80 -43 -150 -116 -187c37 -23 55 -58 55 -102c0 -118 -110 -231 -226 -231z" />
    <glyph glyph-name="four" unicode="4" 
d="M629 167l-36 -167h-158l36 167h-435l264 500h166l-187 -350h223l75 350h158l-74 -350h40l-32 -150h-40z" />
    <glyph glyph-name="five" unicode="5" 
d="M451 0h-412l36 167h388c30 0 56 26 59 60c0 23 -16 40 -38 40h-427l85 400h593l-35 -167h-435l-22 -100h293c50 0 89 -20 115 -61c20 -29 30 -60 30 -95c0 -123 -115 -244 -230 -244z" />
    <glyph glyph-name="six" unicode="6" 
d="M522 227c0 23 -16 40 -38 40h-269l-11 -50c0 -35 8 -50 38 -50h221c30 0 56 26 59 60zM451 0h-253c-54 0 -96 20 -127 61c-21 30 -32 63 -32 101c0 15 2 30 5 46l54 250c24 116 132 209 242 209h395l-35 -167h-387c-26 0 -53 -23 -59 -50l-11 -50h293
c50 0 89 -20 115 -61c20 -29 30 -60 30 -95c0 -123 -114 -244 -230 -244z" />
    <glyph glyph-name="seven" unicode="7" horiz-adv-x="593" 
d="M190 0h-190l439 500h-293l35 167h594z" />
    <glyph glyph-name="eight" unicode="8" 
d="M522 227c0 23 -16 40 -38 40h-221c-31 0 -57 -26 -60 -60c0 -24 16 -40 39 -40h221c30 0 56 26 59 60zM572 461c0 21 -15 39 -38 39h-221c-31 0 -55 -22 -60 -62c0 -20 15 -38 38 -38h222c30 0 55 24 59 61zM451 0h-268c-84 0 -148 63 -148 147c0 80 44 150 117 186
c-37 25 -55 59 -55 104c0 117 111 230 227 230h268c82 0 148 -61 148 -147c0 -81 -43 -149 -117 -187c37 -23 55 -58 55 -103c0 -117 -111 -230 -227 -230z" />
    <glyph glyph-name="nine" unicode="9" 
d="M571 450c0 35 -7 50 -37 50h-221c-31 0 -55 -22 -60 -62c0 -20 15 -38 38 -38h269zM678 208c-25 -115 -133 -208 -243 -208h-396l36 167h388c26 0 52 22 58 50l11 50h-293c-50 0 -89 20 -116 60c-19 30 -29 62 -29 96c0 123 114 244 230 244h253c92 0 159 -70 159 -162
c0 -15 -2 -30 -5 -47z" />
    <glyph glyph-name="colon" unicode=":" horiz-adv-x="198" 
d="M39 0l27 125h119l-27 -125h-119zM119 375l27 125h119l-27 -125h-119z" />
    <glyph glyph-name="semicolon" unicode=";" horiz-adv-x="198" 
d="M109 -83h-56l13 208h119zM119 375l27 125h119l-27 -125h-119z" />
    <glyph glyph-name="less" unicode="&#x3c;" horiz-adv-x="396" 
d="M225 125l-115 208l203 209h159l-211 -209l122 -208h-158z" />
    <glyph glyph-name="equal" unicode="=" horiz-adv-x="475" 
d="M72 158l29 134h396l-29 -134h-396zM119 375l28 133h396l-28 -133h-396z" />
    <glyph glyph-name="greater" unicode="&#x3e;" horiz-adv-x="396" 
d="M225 125h-159l211 208l-123 209h159l115 -209z" />
    <glyph glyph-name="question" unicode="?" horiz-adv-x="593" 
d="M79 0l27 125h119l-27 -125h-119zM429 267h-127c-28 0 -52 -24 -59 -59h-119c22 107 123 192 222 192h87c29 0 56 25 60 60c0 23 -16 40 -38 40h-309l35 167h333c79 3 144 -68 144 -157c0 -122 -114 -243 -229 -243z" />
    <glyph glyph-name="at" unicode="@" horiz-adv-x="712" 
d="M362 300c-11 0 -29 -8 -32 -35c0 -10 6 -15 17 -15h134l17 50h-136zM730 271c-13 -58 -67 -104 -120 -104h-298c-41 0 -67 27 -67 68c0 66 63 132 126 132h146c6 22 6 23 8 35c0 10 -6 15 -18 15h-194l25 83h199c45 -2 72 -30 72 -73c0 -15 -1 -18 -48 -177h58
c18 0 29 10 33 29l59 275c0 25 -2 29 -21 29h-419c-19 0 -31 -9 -35 -29l-93 -442c0 -24 1 -29 21 -29h447l-18 -83h-455c-46 0 -79 34 -79 81c0 7 1 15 3 23l96 459c13 56 68 104 122 104h436c45 0 78 -35 78 -81c0 -7 -1 -15 -2 -23z" />
    <glyph glyph-name="A" unicode="A" 
d="M532 267h-269c-31 0 -57 -26 -60 -60c0 -24 16 -40 39 -40h269zM183 0c-84 0 -145 66 -145 156c0 124 113 244 230 244h292l11 50c0 32 -7 50 -37 50h-388l35 167h396c92 0 159 -70 159 -162c0 -15 -2 -30 -5 -47l-98 -458h-450z" />
    <glyph glyph-name="B" unicode="B" 
d="M522 227c0 23 -16 40 -38 40h-269l-21 -100h269c30 0 56 26 59 60zM572 461c0 21 -15 39 -38 39h-269l-22 -100h270c30 0 55 24 59 61zM451 0h-451l142 667h450c82 0 148 -61 148 -147c0 -81 -43 -149 -117 -187c37 -23 55 -58 55 -103c0 -117 -111 -230 -227 -230z" />
    <glyph glyph-name="C" unicode="C" horiz-adv-x="554" 
d="M198 0c-54 0 -96 20 -127 61c-21 30 -32 63 -32 101c0 15 2 30 5 46l54 250c24 116 132 209 242 209h316l-35 -167h-301c-31 0 -61 -26 -68 -58l-48 -231c0 -26 19 -44 45 -44h341l-36 -167h-356z" />
    <glyph glyph-name="D" unicode="D" 
d="M569 442c0 40 -11 58 -42 58h-262l-71 -333h262c30 0 59 25 66 58zM678 208c-25 -115 -133 -208 -243 -208h-435l142 667h435c92 0 159 -70 159 -162c0 -15 -2 -30 -5 -47z" />
    <glyph glyph-name="E" unicode="E" horiz-adv-x="554" 
d="M0 0l142 667h514l-35 -167h-356l-22 -100h317l-28 -133h-317l-21 -100h396l-36 -167h-554z" />
    <glyph glyph-name="F" unicode="F" horiz-adv-x="554" 
d="M265 500l-22 -100h317l-28 -133h-317l-57 -267h-158l142 667h554l-35 -167h-396z" />
    <glyph glyph-name="G" unicode="G" 
d="M198 0c-54 0 -96 20 -127 61c-21 30 -32 63 -32 101c0 15 2 30 5 46l54 250c24 116 132 209 242 209h395l-35 -167h-380c-31 0 -61 -26 -68 -58l-48 -231c0 -26 19 -44 45 -44h262l21 100h-158l28 133h316l-85 -400h-435z" />
    <glyph glyph-name="H" unicode="H" 
d="M475 0l57 267h-317l-57 -267h-158l142 667h158l-57 -267h317l57 267h158l-142 -667h-158z" />
    <glyph glyph-name="I" unicode="I" horiz-adv-x="222" 
d="M32 0l141 667h159l-142 -667h-158z" />
    <glyph glyph-name="J" unicode="J" horiz-adv-x="475" 
d="M519 208c-25 -116 -132 -208 -242 -208h-277l36 167h261c31 0 60 25 67 58l94 442h159z" />
    <glyph glyph-name="K" unicode="K" horiz-adv-x="613" 
d="M420 0l-210 242l-52 -242h-158l142 667h158l-51 -242l313 242h213l-427 -334l285 -333h-213z" />
    <glyph glyph-name="L" unicode="L" horiz-adv-x="514" 
d="M0 0l142 667h158l-106 -500h356l-36 -167h-514z" />
    <glyph glyph-name="M" unicode="M" horiz-adv-x="792" 
d="M633 0l95 442c0 38 -10 58 -44 58h-102l-107 -500h-158l106 500h-158l-107 -500h-158l142 667h593c55 0 97 -21 127 -62c22 -29 33 -62 33 -99c0 -15 -2 -31 -6 -48l-97 -458h-159z" />
    <glyph glyph-name="N" unicode="N" 
d="M475 0l94 442c0 40 -11 58 -42 58h-262l-107 -500h-158l142 667h435c92 0 159 -70 159 -162c0 -15 -2 -30 -5 -47l-98 -458h-158z" />
    <glyph glyph-name="O" unicode="O" 
d="M569 442c0 40 -11 58 -42 58h-207c-31 0 -61 -26 -68 -58l-48 -231c0 -26 19 -44 45 -44h207c30 0 59 25 66 58zM678 208c-25 -115 -133 -208 -243 -208h-237c-54 0 -96 20 -127 61c-21 30 -32 63 -32 101c0 15 2 30 5 46l54 250c24 116 132 209 242 209h237
c92 0 159 -70 159 -162c0 -15 -2 -30 -5 -47z" />
    <glyph glyph-name="P" unicode="P" 
d="M569 442c0 40 -11 58 -42 58h-262l-36 -167h262c30 0 60 26 67 59zM713 375c-24 -116 -132 -208 -242 -208h-277l-36 -167h-158l142 667h435c92 0 159 -70 159 -162c0 -15 -2 -30 -5 -47z" />
    <glyph glyph-name="Q" unicode="Q" 
d="M529 442c0 40 -9 58 -42 58h-167c-31 0 -61 -26 -68 -58l-48 -231c0 -26 19 -44 45 -44h222zM198 0c-54 0 -96 20 -127 61c-21 30 -32 63 -32 101c0 15 2 30 5 46l54 250c24 116 132 209 242 209h198c88 3 158 -69 158 -162c0 -15 -2 -31 -5 -47l-62 -291h40l-36 -167
h-435z" />
    <glyph glyph-name="R" unicode="R" 
d="M569 442c0 40 -11 58 -42 58h-262l-36 -167h262c30 0 60 26 67 59zM713 375c-24 -116 -132 -208 -242 -208h-63l185 -167h-229l-170 167l-36 -167h-158l142 667h435c92 0 159 -70 159 -162c0 -15 -2 -30 -5 -47z" />
    <glyph glyph-name="S" unicode="S" 
d="M451 0h-412l36 167h388c30 0 56 26 59 60c0 23 -16 40 -38 40h-245c-50 0 -89 20 -116 60c-19 30 -29 62 -29 96c0 123 114 244 230 244h411l-35 -167h-387c-31 0 -55 -22 -60 -62c0 -20 15 -38 38 -38h245c50 0 89 -20 115 -61c20 -29 30 -60 30 -95
c0 -123 -114 -244 -230 -244z" />
    <glyph glyph-name="T" unicode="T" horiz-adv-x="554" 
d="M463 500l-107 -500h-158l107 500h-199l36 167h554l-35 -167h-198z" />
    <glyph glyph-name="U" unicode="U" 
d="M678 208c-25 -115 -133 -208 -243 -208h-237c-54 0 -96 20 -127 61c-21 30 -32 63 -32 101c0 15 2 30 5 46l98 459h158l-96 -456c0 -26 19 -44 45 -44h207c30 0 59 25 66 58l95 442h158z" />
    <glyph glyph-name="V" unicode="V" horiz-adv-x="593" 
d="M384 0h-174l-87 667h173l40 -481l245 481h174z" />
    <glyph glyph-name="W" unicode="W" horiz-adv-x="792" 
d="M198 0c-54 0 -96 20 -127 61c-21 30 -32 63 -32 101c0 15 2 30 5 46l98 459h158l-96 -456c0 -26 19 -44 45 -44h104l105 500h159l-106 -500h158l106 500h158l-141 -667h-594z" />
    <glyph glyph-name="X" unicode="X" horiz-adv-x="593" 
d="M412 0l-74 194l-155 -194h-202l287 333l-145 334h201l73 -194l156 194h202l-286 -334l144 -333h-201z" />
    <glyph glyph-name="Y" unicode="Y" horiz-adv-x="554" 
d="M410 250l-54 -250h-158l53 250l-148 417h201l61 -250l168 250h202z" />
    <glyph glyph-name="Z" unicode="Z" 
d="M289 167h349l-36 -167h-602l36 167l451 333h-349l35 167h602l-35 -167z" />
    <glyph glyph-name="bracketleft" unicode="[" horiz-adv-x="317" 
d="M21 -83l177 833h238l-27 -125h-118l-124 -583h119l-27 -125h-238z" />
    <glyph glyph-name="backslash" unicode="\" horiz-adv-x="399" 
d="M228 -84l-36 804l122 31l34 -804z" />
    <glyph glyph-name="bracketright" unicode="]" horiz-adv-x="317" 
d="M21 -83l27 125h119l124 583h-119l26 125h238l-177 -833h-238z" />
    <glyph glyph-name="asciicircum" unicode="^" horiz-adv-x="514" 
d="M418 292l-45 250l-153 -250h-119l239 375h118l79 -375h-119z" />
    <glyph glyph-name="underscore" unicode="_" horiz-adv-x="396" 
d="M0 0l14 67h396l-14 -67h-396z" />
    <glyph glyph-name="grave" unicode="`" horiz-adv-x="277" 
d="M309 708l-84 167h119l44 -167h-79z" />
    <glyph glyph-name="a" unicode="a" 
d="M532 267h-269c-31 0 -57 -26 -60 -60c0 -24 16 -40 39 -40h269zM183 0c-84 0 -145 66 -145 156c0 124 113 244 230 244h292l11 50c0 32 -7 50 -37 50h-388l35 167h396c92 0 159 -70 159 -162c0 -15 -2 -30 -5 -47l-98 -458h-450z" />
    <glyph glyph-name="b" unicode="b" 
d="M522 227c0 23 -16 40 -38 40h-269l-21 -100h269c30 0 56 26 59 60zM572 461c0 21 -15 39 -38 39h-269l-22 -100h270c30 0 55 24 59 61zM451 0h-451l142 667h450c82 0 148 -61 148 -147c0 -81 -43 -149 -117 -187c37 -23 55 -58 55 -103c0 -117 -111 -230 -227 -230z" />
    <glyph glyph-name="c" unicode="c" horiz-adv-x="554" 
d="M198 0c-54 0 -96 20 -127 61c-21 30 -32 63 -32 101c0 15 2 30 5 46l54 250c24 116 132 209 242 209h316l-35 -167h-301c-31 0 -61 -26 -68 -58l-48 -231c0 -26 19 -44 45 -44h341l-36 -167h-356z" />
    <glyph glyph-name="d" unicode="d" 
d="M569 442c0 40 -11 58 -42 58h-262l-71 -333h262c30 0 59 25 66 58zM678 208c-25 -115 -133 -208 -243 -208h-435l142 667h435c92 0 159 -70 159 -162c0 -15 -2 -30 -5 -47z" />
    <glyph glyph-name="e" unicode="e" 
d="M571 463c0 23 -14 37 -37 37h-221c-26 0 -53 -23 -59 -50l-11 -50h270c32 0 54 24 58 63zM507 267h-292l-11 -50c0 -35 10 -50 38 -50h387l-36 -167h-395c-54 0 -96 20 -127 61c-21 30 -32 63 -32 101c0 15 2 30 5 46l54 250c24 116 132 209 242 209h252
c81 3 145 -67 145 -157c0 -122 -114 -243 -230 -243z" />
    <glyph glyph-name="f" unicode="f" horiz-adv-x="554" 
d="M265 500l-22 -100h317l-28 -133h-317l-57 -267h-158l142 667h554l-35 -167h-396z" />
    <glyph glyph-name="g" unicode="g" 
d="M198 0c-54 0 -96 20 -127 61c-21 30 -32 63 -32 101c0 15 2 30 5 46l54 250c24 116 132 209 242 209h395l-35 -167h-380c-31 0 -61 -26 -68 -58l-48 -231c0 -26 19 -44 45 -44h262l21 100h-158l28 133h316l-85 -400h-435z" />
    <glyph glyph-name="h" unicode="h" 
d="M475 0l57 267h-317l-57 -267h-158l142 667h158l-57 -267h317l57 267h158l-142 -667h-158z" />
    <glyph glyph-name="i" unicode="i" horiz-adv-x="222" 
d="M32 0l141 667h159l-142 -667h-158z" />
    <glyph glyph-name="j" unicode="j" horiz-adv-x="475" 
d="M519 208c-25 -116 -132 -208 -242 -208h-277l36 167h261c31 0 60 25 67 58l94 442h159z" />
    <glyph glyph-name="k" unicode="k" horiz-adv-x="613" 
d="M420 0l-210 242l-52 -242h-158l142 667h158l-51 -242l313 242h213l-427 -334l285 -333h-213z" />
    <glyph glyph-name="l" unicode="l" horiz-adv-x="514" 
d="M0 0l142 667h158l-106 -500h356l-36 -167h-514z" />
    <glyph glyph-name="m" unicode="m" horiz-adv-x="792" 
d="M633 0l95 442c0 38 -10 58 -44 58h-102l-107 -500h-158l106 500h-158l-107 -500h-158l142 667h593c55 0 97 -21 127 -62c22 -29 33 -62 33 -99c0 -15 -2 -31 -6 -48l-97 -458h-159z" />
    <glyph glyph-name="n" unicode="n" 
d="M475 0l94 442c0 40 -11 58 -42 58h-262l-107 -500h-158l142 667h435c92 0 159 -70 159 -162c0 -15 -2 -30 -5 -47l-98 -458h-158z" />
    <glyph glyph-name="o" unicode="o" 
d="M569 442c0 40 -11 58 -42 58h-207c-31 0 -61 -26 -68 -58l-48 -231c0 -26 19 -44 45 -44h207c30 0 59 25 66 58zM678 208c-25 -115 -133 -208 -243 -208h-237c-54 0 -96 20 -127 61c-21 30 -32 63 -32 101c0 15 2 30 5 46l54 250c24 116 132 209 242 209h237
c92 0 159 -70 159 -162c0 -15 -2 -30 -5 -47z" />
    <glyph glyph-name="p" unicode="p" 
d="M569 442c0 40 -11 58 -42 58h-262l-36 -167h262c30 0 60 26 67 59zM713 375c-24 -116 -132 -208 -242 -208h-277l-36 -167h-158l142 667h435c92 0 159 -70 159 -162c0 -15 -2 -30 -5 -47z" />
    <glyph glyph-name="q" unicode="q" 
d="M529 442c0 40 -9 58 -42 58h-167c-31 0 -61 -26 -68 -58l-48 -231c0 -26 19 -44 45 -44h222zM198 0c-54 0 -96 20 -127 61c-21 30 -32 63 -32 101c0 15 2 30 5 46l54 250c24 116 132 209 242 209h198c88 3 158 -69 158 -162c0 -15 -2 -31 -5 -47l-62 -291h40l-36 -167
h-435z" />
    <glyph glyph-name="r" unicode="r" 
d="M569 442c0 40 -11 58 -42 58h-262l-36 -167h262c30 0 60 26 67 59zM713 375c-24 -116 -132 -208 -242 -208h-63l185 -167h-229l-170 167l-36 -167h-158l142 667h435c92 0 159 -70 159 -162c0 -15 -2 -30 -5 -47z" />
    <glyph glyph-name="s" unicode="s" 
d="M451 0h-412l36 167h388c30 0 56 26 59 60c0 23 -16 40 -38 40h-245c-50 0 -89 20 -116 60c-19 30 -29 62 -29 96c0 123 114 244 230 244h411l-35 -167h-387c-31 0 -55 -22 -60 -62c0 -20 15 -38 38 -38h245c50 0 89 -20 115 -61c20 -29 30 -60 30 -95
c0 -123 -114 -244 -230 -244z" />
    <glyph glyph-name="t" unicode="t" horiz-adv-x="554" 
d="M463 500l-107 -500h-158l107 500h-199l36 167h554l-35 -167h-198z" />
    <glyph glyph-name="u" unicode="u" 
d="M678 208c-25 -115 -133 -208 -243 -208h-237c-54 0 -96 20 -127 61c-21 30 -32 63 -32 101c0 15 2 30 5 46l98 459h158l-96 -456c0 -26 19 -44 45 -44h207c30 0 59 25 66 58l95 442h158z" />
    <glyph glyph-name="v" unicode="v" horiz-adv-x="593" 
d="M384 0h-174l-87 667h173l40 -481l245 481h174z" />
    <glyph glyph-name="w" unicode="w" horiz-adv-x="792" 
d="M198 0c-54 0 -96 20 -127 61c-21 30 -32 63 -32 101c0 15 2 30 5 46l98 459h158l-96 -456c0 -26 19 -44 45 -44h104l105 500h159l-106 -500h158l106 500h158l-141 -667h-594z" />
    <glyph glyph-name="x" unicode="x" horiz-adv-x="593" 
d="M412 0l-74 194l-155 -194h-202l287 333l-145 334h201l73 -194l156 194h202l-286 -334l144 -333h-201z" />
    <glyph glyph-name="y" unicode="y" horiz-adv-x="554" 
d="M410 250l-54 -250h-158l53 250l-148 417h201l61 -250l168 250h202z" />
    <glyph glyph-name="z" unicode="z" 
d="M143 0l225 167h270l-36 -167h-459zM63 0h-63l36 167l675 500h64l-35 -167zM408 500h-270l35 167h459z" />
    <glyph glyph-name="braceleft" unicode="{" horiz-adv-x="435" 
d="M299 -83c-66 -7 -127 52 -127 128c0 12 1 25 4 38l29 142c0 27 -19 46 -44 46h-64l27 125h64c30 0 60 25 67 58l28 129c18 93 104 167 193 167h79l-27 -125h-63c-48 0 -63 -28 -81 -122c-18 -86 -47 -134 -105 -170c29 -24 43 -58 43 -100c0 -17 -6 -50 -24 -133
c-1 -5 -2 -10 -2 -15c0 -25 19 -43 46 -43h63l-27 -125h-79z" />
    <glyph glyph-name="bar" unicode="|" horiz-adv-x="198" 
d="M21 -83l177 833h119l-176 -833h-120z" />
    <glyph glyph-name="braceright" unicode="}" horiz-adv-x="435" 
d="M390 271c-31 0 -61 -26 -68 -59l-28 -129c-18 -92 -104 -166 -193 -166h-80l27 125h64c41 0 62 25 74 90c22 115 47 162 112 201c-28 25 -42 57 -42 99c0 19 6 53 23 135c0 41 -13 58 -43 58h-64l26 125h79c74 0 128 -54 128 -130c0 -12 -2 -24 -4 -37l-29 -143
c0 -25 19 -44 45 -44h63l-27 -125h-63z" />
    <glyph glyph-name="asciitilde" unicode="~" horiz-adv-x="530" 
d="M595 492c-68 -56 -124 -84 -167 -84c-23 0 -45 14 -67 42s-45 42 -67 42c-44 0 -100 -28 -168 -84l28 134c68 55 124 83 168 83c23 0 45 -14 67 -42s44 -41 67 -41c44 0 100 27 168 83z" />
    <glyph glyph-name="Adieresis" unicode="&#xc4;" 
d="M532 267h-269c-31 0 -57 -26 -60 -60c0 -24 16 -40 39 -40h269zM183 0c-84 0 -145 66 -145 156c0 124 113 244 230 244h292l11 50c0 32 -7 50 -37 50h-388l35 167h396c92 0 159 -70 159 -162c0 -15 -2 -30 -5 -47l-98 -458h-450zM313 708l22 109h103l-22 -109h-103z
M519 708l22 109h103l-22 -109h-103z" />
    <glyph glyph-name="Aring" unicode="&#xc5;" 
d="M533 832c0 12 -2 14 -11 14h-51c-9 0 -15 -5 -17 -14l-12 -55c0 -12 1 -14 11 -14h51c9 0 14 5 17 14zM572 773c-8 -35 -41 -65 -74 -65h-60c-29 0 -51 22 -51 51l16 77c8 35 42 64 76 64h60c27 0 48 -21 48 -49zM532 267h-269c-31 0 -57 -26 -60 -60
c0 -24 16 -40 39 -40h269zM183 0c-84 0 -145 66 -145 156c0 124 113 244 230 244h292l11 50c0 32 -7 50 -37 50h-388l35 167h396c92 0 159 -70 159 -162c0 -15 -2 -30 -5 -47l-98 -458h-450z" />
    <glyph glyph-name="Eacute" unicode="&#xc9;" horiz-adv-x="554" 
d="M0 0l142 667h514l-35 -167h-356l-22 -100h317l-28 -133h-317l-21 -100h396l-36 -167h-554zM407 708h-79l114 167h120z" />
    <glyph glyph-name="Ntilde" unicode="&#xd1;" 
d="M475 0l94 442c0 40 -11 58 -42 58h-262l-107 -500h-158l142 667h435c92 0 159 -70 159 -162c0 -15 -2 -30 -5 -47l-98 -458h-158zM660 775c-53 -44 -97 -67 -133 -67c-17 0 -35 12 -52 34c-18 22 -35 33 -53 33c-34 0 -79 -22 -133 -67l21 100c54 45 99 67 133 67
c18 0 35 -11 52 -34c18 -22 35 -33 52 -33c36 0 80 22 134 67z" />
    <glyph glyph-name="Odieresis" unicode="&#xd6;" 
d="M569 442c0 40 -11 58 -42 58h-207c-31 0 -61 -26 -68 -58l-48 -231c0 -26 19 -44 45 -44h207c30 0 59 25 66 58zM678 208c-25 -115 -133 -208 -243 -208h-237c-54 0 -96 20 -127 61c-21 30 -32 63 -32 101c0 15 2 30 5 46l54 250c24 116 132 209 242 209h237
c92 0 159 -70 159 -162c0 -15 -2 -30 -5 -47zM313 708l22 109h103l-22 -109h-103zM519 708l22 109h103l-22 -109h-103z" />
    <glyph glyph-name="Udieresis" unicode="&#xdc;" 
d="M313 708l22 109h103l-22 -109h-103zM519 708l22 109h103l-22 -109h-103zM678 208c-25 -115 -133 -208 -243 -208h-237c-54 0 -96 20 -127 61c-21 30 -32 63 -32 101c0 15 2 30 5 46l98 459h158l-96 -456c0 -26 19 -44 45 -44h207c30 0 59 25 66 58l95 442h158z" />
    <glyph glyph-name="aacute" unicode="&#xe1;" 
d="M532 267h-269c-31 0 -57 -26 -60 -60c0 -24 16 -40 39 -40h269zM183 0c-84 0 -145 66 -145 156c0 124 113 244 230 244h292l11 50c0 32 -7 50 -37 50h-388l35 167h396c92 0 159 -70 159 -162c0 -15 -2 -30 -5 -47l-98 -458h-450zM447 708h-79l114 167h120z" />
    <glyph glyph-name="agrave" unicode="&#xe0;" 
d="M487 708l-84 167h119l44 -167h-79zM532 267h-269c-31 0 -57 -26 -60 -60c0 -24 16 -40 39 -40h269zM183 0c-84 0 -145 66 -145 156c0 124 113 244 230 244h292l11 50c0 32 -7 50 -37 50h-388l35 167h396c92 0 159 -70 159 -162c0 -15 -2 -30 -5 -47l-98 -458h-450z" />
    <glyph glyph-name="acircumflex" unicode="&#xe2;" 
d="M527 708l-39 101l-80 -101h-119l154 167h119l84 -167h-119zM532 267h-269c-31 0 -57 -26 -60 -60c0 -24 16 -40 39 -40h269zM183 0c-84 0 -145 66 -145 156c0 124 113 244 230 244h292l11 50c0 32 -7 50 -37 50h-388l35 167h396c92 0 159 -70 159 -162
c0 -15 -2 -30 -5 -47l-98 -458h-450z" />
    <glyph glyph-name="adieresis" unicode="&#xe4;" 
d="M313 708l22 109h103l-22 -109h-103zM519 708l22 109h103l-22 -109h-103zM532 267h-269c-31 0 -57 -26 -60 -60c0 -24 16 -40 39 -40h269zM183 0c-84 0 -145 66 -145 156c0 124 113 244 230 244h292l11 50c0 32 -7 50 -37 50h-388l35 167h396c92 0 159 -70 159 -162
c0 -15 -2 -30 -5 -47l-98 -458h-450z" />
    <glyph glyph-name="atilde" unicode="&#xe3;" 
d="M532 267h-269c-31 0 -57 -26 -60 -60c0 -24 16 -40 39 -40h269zM183 0c-84 0 -145 66 -145 156c0 124 113 244 230 244h292l11 50c0 32 -7 50 -37 50h-388l35 167h396c92 0 159 -70 159 -162c0 -15 -2 -30 -5 -47l-98 -458h-450zM660 775c-53 -44 -97 -67 -133 -67
c-17 0 -35 12 -52 34c-18 22 -35 33 -53 33c-34 0 -79 -22 -133 -67l21 100c54 45 99 67 133 67c18 0 35 -11 52 -34c18 -22 35 -33 52 -33c36 0 80 22 134 67z" />
    <glyph glyph-name="aring" unicode="&#xe5;" 
d="M533 832c0 12 -2 14 -11 14h-51c-9 0 -15 -5 -17 -14l-12 -55c0 -12 1 -14 11 -14h51c9 0 14 5 17 14zM572 773c-8 -35 -41 -65 -74 -65h-60c-29 0 -51 22 -51 51l16 77c8 35 42 64 76 64h60c27 0 48 -21 48 -49zM532 267h-269c-31 0 -57 -26 -60 -60
c0 -24 16 -40 39 -40h269zM183 0c-84 0 -145 66 -145 156c0 124 113 244 230 244h292l11 50c0 32 -7 50 -37 50h-388l35 167h396c92 0 159 -70 159 -162c0 -15 -2 -30 -5 -47l-98 -458h-450z" />
    <glyph glyph-name="eacute" unicode="&#xe9;" 
d="M571 463c0 23 -14 37 -37 37h-221c-26 0 -53 -23 -59 -50l-11 -50h270c32 0 54 24 58 63zM507 267h-292l-11 -50c0 -35 10 -50 38 -50h387l-36 -167h-395c-54 0 -96 20 -127 61c-21 30 -32 63 -32 101c0 15 2 30 5 46l54 250c24 116 132 209 242 209h252
c81 3 145 -67 145 -157c0 -122 -114 -243 -230 -243zM447 708h-79l114 167h120z" />
    <glyph glyph-name="egrave" unicode="&#xe8;" 
d="M487 708l-84 167h119l44 -167h-79zM571 463c0 23 -14 37 -37 37h-221c-26 0 -53 -23 -59 -50l-11 -50h270c32 0 54 24 58 63zM507 267h-292l-11 -50c0 -35 10 -50 38 -50h387l-36 -167h-395c-54 0 -96 20 -127 61c-21 30 -32 63 -32 101c0 15 2 30 5 46l54 250
c24 116 132 209 242 209h252c81 3 145 -67 145 -157c0 -122 -114 -243 -230 -243z" />
    <glyph glyph-name="ecircumflex" unicode="&#xea;" 
d="M527 708l-39 101l-80 -101h-119l154 167h119l84 -167h-119zM571 463c0 23 -14 37 -37 37h-221c-26 0 -53 -23 -59 -50l-11 -50h270c32 0 54 24 58 63zM507 267h-292l-11 -50c0 -35 10 -50 38 -50h387l-36 -167h-395c-54 0 -96 20 -127 61c-21 30 -32 63 -32 101
c0 15 2 30 5 46l54 250c24 116 132 209 242 209h252c81 3 145 -67 145 -157c0 -122 -114 -243 -230 -243z" />
    <glyph glyph-name="edieresis" unicode="&#xeb;" 
d="M313 708l22 109h103l-22 -109h-103zM519 708l22 109h103l-22 -109h-103zM571 463c0 23 -14 37 -37 37h-221c-26 0 -53 -23 -59 -50l-11 -50h270c32 0 54 24 58 63zM507 267h-292l-11 -50c0 -35 10 -50 38 -50h387l-36 -167h-395c-54 0 -96 20 -127 61
c-21 30 -32 63 -32 101c0 15 2 30 5 46l54 250c24 116 132 209 242 209h252c81 3 145 -67 145 -157c0 -122 -114 -243 -230 -243z" />
    <glyph glyph-name="iacute" unicode="&#xed;" horiz-adv-x="222" 
d="M243 708h-79l114 167h119zM32 0l141 667h159l-142 -667h-158z" />
    <glyph glyph-name="igrave" unicode="&#xec;" horiz-adv-x="222" 
d="M283 708l-84 167h119l44 -167h-79zM32 0l141 667h159l-142 -667h-158z" />
    <glyph glyph-name="icircumflex" unicode="&#xee;" horiz-adv-x="222" 
d="M322 708l-38 101l-80 -101h-120l155 167h118l84 -167h-119zM32 0l141 667h159l-142 -667h-158z" />
    <glyph glyph-name="idieresis" unicode="&#xef;" horiz-adv-x="222" 
d="M107 708l23 109h103l-22 -109h-104zM313 708l23 109h103l-22 -109h-104zM32 0l141 667h159l-142 -667h-158z" />
    <glyph glyph-name="ntilde" unicode="&#xf1;" 
d="M475 0l94 442c0 40 -11 58 -42 58h-262l-107 -500h-158l142 667h435c92 0 159 -70 159 -162c0 -15 -2 -30 -5 -47l-98 -458h-158zM660 775c-53 -44 -97 -67 -133 -67c-17 0 -35 12 -52 34c-18 22 -35 33 -53 33c-34 0 -79 -22 -133 -67l21 100c54 45 99 67 133 67
c18 0 35 -11 52 -34c18 -22 35 -33 52 -33c36 0 80 22 134 67z" />
    <glyph glyph-name="oacute" unicode="&#xf3;" 
d="M569 442c0 40 -11 58 -42 58h-207c-31 0 -61 -26 -68 -58l-48 -231c0 -26 19 -44 45 -44h207c30 0 59 25 66 58zM678 208c-25 -115 -133 -208 -243 -208h-237c-54 0 -96 20 -127 61c-21 30 -32 63 -32 101c0 15 2 30 5 46l54 250c24 116 132 209 242 209h237
c92 0 159 -70 159 -162c0 -15 -2 -30 -5 -47zM447 708h-79l114 167h120z" />
    <glyph glyph-name="ograve" unicode="&#xf2;" 
d="M487 708l-84 167h119l44 -167h-79zM569 442c0 40 -11 58 -42 58h-207c-31 0 -61 -26 -68 -58l-48 -231c0 -26 19 -44 45 -44h207c30 0 59 25 66 58zM678 208c-25 -115 -133 -208 -243 -208h-237c-54 0 -96 20 -127 61c-21 30 -32 63 -32 101c0 15 2 30 5 46l54 250
c24 116 132 209 242 209h237c92 0 159 -70 159 -162c0 -15 -2 -30 -5 -47z" />
    <glyph glyph-name="ocircumflex" unicode="&#xf4;" 
d="M527 708l-39 101l-80 -101h-119l154 167h119l84 -167h-119zM569 442c0 40 -11 58 -42 58h-207c-31 0 -61 -26 -68 -58l-48 -231c0 -26 19 -44 45 -44h207c30 0 59 25 66 58zM678 208c-25 -115 -133 -208 -243 -208h-237c-54 0 -96 20 -127 61c-21 30 -32 63 -32 101
c0 15 2 30 5 46l54 250c24 116 132 209 242 209h237c92 0 159 -70 159 -162c0 -15 -2 -30 -5 -47z" />
    <glyph glyph-name="odieresis" unicode="&#xf6;" 
d="M313 708l22 109h103l-22 -109h-103zM519 708l22 109h103l-22 -109h-103zM569 442c0 40 -11 58 -42 58h-207c-31 0 -61 -26 -68 -58l-48 -231c0 -26 19 -44 45 -44h207c30 0 59 25 66 58zM678 208c-25 -115 -133 -208 -243 -208h-237c-54 0 -96 20 -127 61
c-21 30 -32 63 -32 101c0 15 2 30 5 46l54 250c24 116 132 209 242 209h237c92 0 159 -70 159 -162c0 -15 -2 -30 -5 -47z" />
    <glyph glyph-name="otilde" unicode="&#xf5;" 
d="M569 442c0 40 -11 58 -42 58h-207c-31 0 -61 -26 -68 -58l-48 -231c0 -26 19 -44 45 -44h207c30 0 59 25 66 58zM678 208c-25 -115 -133 -208 -243 -208h-237c-54 0 -96 20 -127 61c-21 30 -32 63 -32 101c0 15 2 30 5 46l54 250c24 116 132 209 242 209h237
c92 0 159 -70 159 -162c0 -15 -2 -30 -5 -47zM660 775c-53 -44 -97 -67 -133 -67c-17 0 -35 12 -52 34c-18 22 -35 33 -53 33c-34 0 -79 -22 -133 -67l21 100c54 45 99 67 133 67c18 0 35 -11 52 -34c18 -22 35 -33 52 -33c36 0 80 22 134 67z" />
    <glyph glyph-name="uacute" unicode="&#xfa;" 
d="M678 208c-25 -115 -133 -208 -243 -208h-237c-54 0 -96 20 -127 61c-21 30 -32 63 -32 101c0 15 2 30 5 46l98 459h158l-96 -456c0 -26 19 -44 45 -44h207c30 0 59 25 66 58l95 442h158zM447 708h-79l114 167h120z" />
    <glyph glyph-name="ugrave" unicode="&#xf9;" 
d="M487 708l-84 167h119l44 -167h-79zM678 208c-25 -115 -133 -208 -243 -208h-237c-54 0 -96 20 -127 61c-21 30 -32 63 -32 101c0 15 2 30 5 46l98 459h158l-96 -456c0 -26 19 -44 45 -44h207c30 0 59 25 66 58l95 442h158z" />
    <glyph glyph-name="ucircumflex" unicode="&#xfb;" 
d="M527 708l-39 101l-80 -101h-119l154 167h119l84 -167h-119zM678 208c-25 -115 -133 -208 -243 -208h-237c-54 0 -96 20 -127 61c-21 30 -32 63 -32 101c0 15 2 30 5 46l98 459h158l-96 -456c0 -26 19 -44 45 -44h207c30 0 59 25 66 58l95 442h158z" />
    <glyph glyph-name="udieresis" unicode="&#xfc;" 
d="M313 708l22 109h103l-22 -109h-103zM519 708l22 109h103l-22 -109h-103zM678 208c-25 -115 -133 -208 -243 -208h-237c-54 0 -96 20 -127 61c-21 30 -32 63 -32 101c0 15 2 30 5 46l98 459h158l-96 -456c0 -26 19 -44 45 -44h207c30 0 59 25 66 58l95 442h158z" />
    <glyph glyph-name="dagger" unicode="&#x2020;" horiz-adv-x="514" 
d="M400 392l-118 -558h-118l118 558h-159l23 108h159l35 167h118l-35 -167h159l-24 -108h-158z" />
    <glyph glyph-name="degree" unicode="&#xb0;" horiz-adv-x="261" 
d="M297 598c0 11 -1 14 -10 14h-52c-10 0 -15 -4 -17 -14l-11 -54c0 -13 1 -15 10 -15h52c9 0 15 5 17 15zM336 540c-6 -35 -41 -65 -74 -65h-59c-24 -5 -50 21 -50 50l14 78c9 44 49 64 76 64h60c34 0 47 -20 47 -64z" />
    <glyph glyph-name="cent" unicode="&#xa2;" horiz-adv-x="514" 
d="M360 500c-31 0 -60 -25 -68 -58l-10 -50c0 -43 9 -59 42 -59l75 167h-39zM313 167l-38 -84h-64l38 85c-81 11 -135 75 -135 159c0 15 1 31 5 48l18 83c24 116 132 209 242 209h95l38 83h63l-37 -83h79l-35 -167h-119l-75 -167h158l-35 -166h-198z" />
    <glyph glyph-name="sterling" unicode="&#xa3;" 
d="M118 0l62 292h-79l14 66h79l22 100c24 116 132 209 242 209h238l-35 -167h-222c-31 0 -62 -26 -68 -58l-18 -84h158l-14 -66h-159l-25 -125h316l-36 -167h-475z" />
    <glyph glyph-name="bullet" unicode="&#x2022;" horiz-adv-x="396" 
d="M404 225c-7 -33 -37 -58 -68 -58h-205c-35 1 -45 17 -45 58l47 217c7 33 37 58 69 58h206c34 0 43 -18 43 -58z" />
    <glyph glyph-name="paragraph" unicode="&#xb6;" horiz-adv-x="712" 
d="M700 500l-142 -666h-118l142 666h-80l-141 -666h-119l71 333c-95 0 -129 10 -167 61c-21 29 -32 63 -32 100c0 15 2 31 5 47l18 83c24 116 132 209 242 209h435l-35 -167h-79z" />
    <glyph glyph-name="germandbls" unicode="&#xdf;" 
d="M451 0h-214l36 167h190c30 0 56 26 59 60c0 23 -16 40 -38 40h-190l28 133h191c30 0 55 24 59 61c0 21 -15 39 -38 39h-214c-31 0 -61 -26 -68 -58l-128 -608h-159l133 624c24 116 132 209 242 209h252c82 0 148 -61 148 -147c0 -81 -43 -149 -117 -187
c37 -23 55 -58 55 -103c0 -117 -111 -230 -227 -230z" />
    <glyph glyph-name="registered" unicode="&#xae;" horiz-adv-x="712" 
d="M518 388c0 24 -2 29 -22 29h-131l-17 -84h131c18 0 29 10 33 29zM438 250l93 -83h-115l-86 83l-17 -83h-79l71 333h217c45 0 79 -34 79 -80c-15 -130 -58 -170 -163 -170zM711 554c0 25 -2 29 -21 29h-419c-19 0 -31 -9 -35 -29l-93 -442c0 -24 1 -29 21 -29h419
c19 0 30 10 35 29zM695 104c-12 -58 -66 -104 -121 -104h-436c-46 0 -79 34 -79 80c0 8 1 16 3 24l96 459c14 58 67 104 122 104h436c45 0 79 -33 79 -78c0 -9 -1 -17 -3 -26z" />
    <glyph glyph-name="copyright" unicode="&#xa9;" horiz-adv-x="712" 
d="M353 167c-44 -4 -81 33 -81 81c0 7 1 15 3 23l27 125c13 58 66 104 121 104h159l-19 -83h-150c-19 0 -30 -10 -34 -29l-23 -109c0 -24 2 -29 21 -29h171l-17 -83h-178zM711 554c0 25 -2 29 -21 29h-419c-19 0 -31 -9 -35 -29l-93 -442c0 -24 1 -29 21 -29h419
c19 0 30 10 35 29zM695 104c-12 -58 -66 -104 -121 -104h-436c-46 0 -79 34 -79 80c0 8 1 16 3 24l96 459c14 58 67 104 122 104h436c45 0 79 -33 79 -78c0 -9 -1 -17 -3 -26z" />
    <glyph glyph-name="trademark" unicode="&#x2122;" horiz-adv-x="752" 
d="M704 333l47 221c0 25 -2 29 -21 29h-52l-53 -250h-79l53 250h-79l-53 -250h-79l53 250h-99l-53 -250h-80l54 250h-99l17 84h574c46 0 79 -34 79 -81c0 -7 -1 -15 -2 -23l-49 -230h-79z" />
    <glyph glyph-name="acute" unicode="&#xb4;" horiz-adv-x="277" 
d="M269 708h-79l114 167h119z" />
    <glyph glyph-name="dieresis" unicode="&#xa8;" horiz-adv-x="388" 
d="M190 708l22 109h104l-23 -109h-103zM396 708l22 109h103l-22 -109h-103z" />
    <glyph glyph-name="AE" unicode="&#xc6;" horiz-adv-x="950" 
d="M453 267h-190c-31 0 -57 -26 -60 -60c0 -24 16 -40 39 -40h190zM888 450c0 35 -10 50 -37 50h-190l-22 -100h237zM611 267l-21 -100h356l-36 -167h-727c-84 0 -145 66 -145 156c0 124 113 244 230 244h213l21 100h-356l35 167h729c79 3 144 -68 144 -157
c0 -14 -1 -28 -5 -43l-42 -200h-396z" />
    <glyph glyph-name="Oslash" unicode="&#xd8;" 
d="M563 417l-290 -250h183c30 0 59 25 66 58zM320 500c-31 0 -61 -26 -68 -58l-41 -192l291 250h-182zM728 558c5 -17 8 -34 8 -53c0 -15 -2 -30 -5 -47l-53 -250c-25 -115 -133 -208 -243 -208h-237c-34 0 -64 8 -90 25l-77 -66l-61 83l77 66c-5 17 -8 35 -8 54
c0 15 2 30 5 46l54 250c24 116 132 209 242 209h237c34 0 64 -9 90 -25l77 66l61 -83z" />
    <glyph glyph-name="plusminus" unicode="&#xb1;" horiz-adv-x="475" 
d="M39 0l28 133h396l-28 -133h-396zM375 350l-30 -142h-127l31 142h-136l29 133h135l30 142h126l-30 -142h135l-29 -133h-134z" />
    <glyph glyph-name="yen" unicode="&#xa5;" 
d="M475 283h178l-14 -66h-197l-18 -84h198l-15 -66h-197l-14 -67h-159l14 67h-198l14 66h199l17 84h-198l14 66h179l-136 384h201l62 -250l168 250h202z" />
    <glyph glyph-name="ae" unicode="&#xe6;" horiz-adv-x="950" 
d="M453 267h-190c-31 0 -57 -26 -60 -60c0 -24 16 -40 39 -40h190zM888 450c0 35 -10 50 -37 50h-190l-22 -100h237zM611 267l-21 -100h356l-36 -167h-727c-84 0 -145 66 -145 156c0 124 113 244 230 244h213l21 100h-356l35 167h729c79 3 144 -68 144 -157
c0 -14 -1 -28 -5 -43l-42 -200h-396z" />
    <glyph glyph-name="oslash" unicode="&#xf8;" 
d="M563 417l-290 -250h183c30 0 59 25 66 58zM320 500c-31 0 -61 -26 -68 -58l-41 -192l291 250h-182zM728 558c5 -17 8 -34 8 -53c0 -15 -2 -30 -5 -47l-53 -250c-25 -115 -133 -208 -243 -208h-237c-34 0 -64 8 -90 25l-77 -66l-61 83l77 66c-5 17 -8 35 -8 54
c0 15 2 30 5 46l54 250c24 116 132 209 242 209h237c34 0 64 -9 90 -25l77 66l61 -83z" />
    <glyph glyph-name="questiondown" unicode="&#xbf;" horiz-adv-x="593" 
d="M204 -83c-73 -6 -145 65 -145 156c0 122 116 244 230 244h127c28 0 51 22 60 58h118c-22 -106 -123 -192 -222 -192h-88c-29 0 -55 -26 -58 -60c0 -23 15 -40 37 -40h309l-35 -166h-333zM493 458l27 125h118l-26 -125h-119z" />
    <glyph glyph-name="exclamdown" unicode="&#xa1;" horiz-adv-x="222" 
d="M14 -83l118 458h118l-78 -458h-158zM149 458l27 125h118l-26 -125h-119z" />
    <glyph glyph-name="guillemotleft" unicode="&#xab;" horiz-adv-x="499" 
d="M152 42l-69 166l140 167h110l-146 -167l76 -166h-111zM357 42l-68 166l139 167h111l-146 -167l75 -166h-111z" />
    <glyph glyph-name="guillemotright" unicode="&#xbb;" horiz-adv-x="499" 
d="M159 42h-111l146 166l-75 167h111l67 -167zM366 42h-112l147 166l-76 167h112l66 -167z" />
    <glyph glyph-name="ellipsis" unicode="&#x2026;" horiz-adv-x="562" 
d="M39 0l27 125h119l-27 -125h-119zM222 0l27 125h119l-27 -125h-119zM404 0l27 125h118l-27 -125h-118z" />
    <glyph glyph-name="Agrave" unicode="&#xc0;" 
d="M532 267h-269c-31 0 -57 -26 -60 -60c0 -24 16 -40 39 -40h269zM183 0c-84 0 -145 66 -145 156c0 124 113 244 230 244h292l11 50c0 32 -7 50 -37 50h-388l35 167h396c92 0 159 -70 159 -162c0 -15 -2 -30 -5 -47l-98 -458h-450zM487 708l-84 167h119l44 -167h-79z" />
    <glyph glyph-name="Atilde" unicode="&#xc3;" 
d="M660 775c-53 -44 -97 -67 -133 -67c-17 0 -35 12 -52 34c-18 22 -35 33 -53 33c-34 0 -79 -22 -133 -67l21 100c54 45 99 67 133 67c18 0 35 -11 52 -34c18 -22 35 -33 52 -33c36 0 80 22 134 67zM532 267h-269c-31 0 -57 -26 -60 -60c0 -24 16 -40 39 -40h269zM183 0
c-84 0 -145 66 -145 156c0 124 113 244 230 244h292l11 50c0 32 -7 50 -37 50h-388l35 167h396c92 0 159 -70 159 -162c0 -15 -2 -30 -5 -47l-98 -458h-450z" />
    <glyph glyph-name="Otilde" unicode="&#xd5;" 
d="M569 442c0 40 -11 58 -42 58h-207c-31 0 -61 -26 -68 -58l-48 -231c0 -26 19 -44 45 -44h207c30 0 59 25 66 58zM678 208c-25 -115 -133 -208 -243 -208h-237c-54 0 -96 20 -127 61c-21 30 -32 63 -32 101c0 15 2 30 5 46l54 250c24 116 132 209 242 209h237
c92 0 159 -70 159 -162c0 -15 -2 -30 -5 -47zM660 775c-53 -44 -97 -67 -133 -67c-17 0 -35 12 -52 34c-18 22 -35 33 -53 33c-34 0 -79 -22 -133 -67l21 100c54 45 99 67 133 67c18 0 35 -11 52 -34c18 -22 35 -33 52 -33c36 0 80 22 134 67z" />
    <glyph glyph-name="OE" unicode="&#x152;" horiz-adv-x="871" 
d="M502 500h-182c-31 0 -61 -26 -68 -58l-48 -231c0 -26 19 -44 45 -44h183zM198 0c-54 0 -96 20 -127 61c-21 30 -32 63 -32 101c0 15 2 30 5 46l54 250c24 116 132 209 242 209h633l-35 -167h-277l-22 -100h237l-28 -133h-237l-21 -100h317l-36 -167h-673z" />
    <glyph glyph-name="oe" unicode="&#x153;" horiz-adv-x="950" 
d="M502 500h-182c-31 0 -61 -26 -68 -58l-48 -231c0 -26 19 -44 45 -44h183zM888 450c0 35 -10 50 -37 50h-190l-22 -100h237zM611 267l-21 -100h356l-36 -167h-712c-54 0 -96 20 -127 61c-21 30 -32 63 -32 101c0 15 2 30 5 46l54 250c24 116 132 209 242 209h570
c79 3 144 -68 144 -157c0 -14 -1 -28 -5 -43l-42 -200h-396z" />
    <glyph glyph-name="endash" unicode="&#x2013;" horiz-adv-x="317" 
d="M96 267l28 133h238l-29 -133h-237z" />
    <glyph glyph-name="emdash" unicode="&#x2014;" 
d="M96 267l28 133h554l-28 -133h-554z" />
    <glyph glyph-name="quotedblleft" unicode="&#x201c;" horiz-adv-x="380" 
d="M224 458h-56l13 209h119zM406 458h-55l12 209h119z" />
    <glyph glyph-name="quotedblright" unicode="&#x201d;" horiz-adv-x="380" 
d="M224 458h-56l13 209h119zM406 458h-55l12 209h119z" />
    <glyph glyph-name="quoteleft" unicode="&#x2018;" horiz-adv-x="198" 
d="M224 458h-56l13 209h119z" />
    <glyph glyph-name="quoteright" unicode="&#x2019;" horiz-adv-x="198" 
d="M224 458h-56l13 209h119z" />
    <glyph glyph-name="divide" unicode="&#xf7;" horiz-adv-x="475" 
d="M194 75l27 125h118l-26 -125h-119zM96 267l28 133h396l-28 -133h-396zM277 467l27 125h118l-26 -125h-119z" />
    <glyph glyph-name="ydieresis" unicode="&#xff;" horiz-adv-x="554" 
d="M410 250l-54 -250h-158l53 250l-148 417h201l61 -250l168 250h202zM273 708l23 109h103l-22 -109h-104zM479 708l23 109h103l-22 -109h-104z" />
    <glyph glyph-name="Ydieresis" unicode="&#x178;" horiz-adv-x="554" 
d="M273 708l23 109h103l-22 -109h-104zM479 708l23 109h103l-22 -109h-104zM410 250l-54 -250h-158l53 250l-148 417h201l61 -250l168 250h202z" />
    <glyph glyph-name="currency" unicode="&#xa4;" horiz-adv-x="501" 
d="M413 388c0 24 -2 29 -22 29h-103c-19 0 -30 -10 -34 -29l-23 -109c0 -24 2 -29 21 -29h104c18 0 29 10 33 29zM430 111l-47 63c-11 -5 -24 -7 -37 -7h-118c-14 0 -26 2 -36 7l-74 -63l-43 58l74 63v39l28 125c3 16 7 25 15 38l-47 64l68 58l47 -63c13 5 26 7 38 7h119
c12 0 23 -2 35 -7l73 63l43 -58l-74 -64v-38l-27 -125c-4 -14 -9 -27 -15 -39l47 -63z" />
    <glyph glyph-name="guilsinglleft" unicode="&#x2039;" horiz-adv-x="317" 
d="M203 208l-93 125l146 125h118l-153 -125l100 -125h-118z" />
    <glyph glyph-name="guilsinglright" unicode="&#x203a;" horiz-adv-x="317" 
d="M203 208h-120l154 125l-100 125h119l92 -125z" />
    <glyph glyph-name="daggerdbl" unicode="&#x2021;" horiz-adv-x="514" 
d="M342 117l-60 -283h-118l59 283h-159l22 108h160l36 167h-159l23 108h159l35 167h118l-35 -167h159l-24 -108h-158l-36 -167h158l-22 -108h-158z" />
    <glyph glyph-name="quotedblbase" unicode="&#x201e;" horiz-adv-x="380" 
d="M109 -83h-56l13 208h119zM291 -83h-55l13 208h119z" />
    <glyph glyph-name="perthousand" unicode="&#x2030;" horiz-adv-x="1116" 
d="M422 540c0 17 -3 33 -25 33h-115c-17 0 -35 -15 -38 -33l-26 -122c0 -23 4 -32 24 -32h115c18 0 36 14 39 32zM716 249c0 21 -5 33 -24 33h-37c-16 0 -34 -16 -38 -33l-26 -123c0 -22 6 -32 24 -32h37c17 0 34 14 38 32zM1041 249c0 21 -4 33 -24 33h-37
c-17 0 -34 -16 -38 -33l-26 -123c0 -22 6 -32 24 -32h37c17 0 35 15 38 32zM777 118c-12 -65 -74 -118 -136 -118h-55c-51 0 -89 39 -89 91c0 9 1 17 3 27l30 139c1 7 2 10 8 24l-261 -281h-159l284 305c-18 -9 -37 -13 -56 -13h-134c-51 0 -89 38 -89 90c0 9 1 18 3 27
l30 140c14 65 74 118 136 118h134c37 8 89 -36 89 -91c0 -9 0 -17 -2 -27l-31 -140c-1 -7 -3 -15 -7 -23l260 281h159l-283 -305c21 9 45 14 72 14c80 5 127 -27 127 -92c0 -9 -1 -17 -2 -27zM1102 118c-13 -65 -75 -118 -137 -118h-54c-51 0 -89 38 -89 91c0 8 1 17 3 27
l30 139c14 66 74 118 136 118h54c77 -6 90 -61 90 -91c0 -9 -1 -17 -3 -27z" />
    <glyph glyph-name="Acircumflex" unicode="&#xc2;" 
d="M532 267h-269c-31 0 -57 -26 -60 -60c0 -24 16 -40 39 -40h269zM183 0c-84 0 -145 66 -145 156c0 124 113 244 230 244h292l11 50c0 32 -7 50 -37 50h-388l35 167h396c92 0 159 -70 159 -162c0 -15 -2 -30 -5 -47l-98 -458h-450zM527 708l-39 101l-80 -101h-119l154 167
h119l84 -167h-119z" />
    <glyph glyph-name="Ecircumflex" unicode="&#xca;" horiz-adv-x="554" 
d="M487 708l-39 101l-80 -101h-119l154 167h118l85 -167h-119zM0 0l142 667h514l-35 -167h-356l-22 -100h317l-28 -133h-317l-21 -100h396l-36 -167h-554z" />
    <glyph glyph-name="Aacute" unicode="&#xc1;" 
d="M447 708h-79l114 167h120zM532 267h-269c-31 0 -57 -26 -60 -60c0 -24 16 -40 39 -40h269zM183 0c-84 0 -145 66 -145 156c0 124 113 244 230 244h292l11 50c0 32 -7 50 -37 50h-388l35 167h396c92 0 159 -70 159 -162c0 -15 -2 -30 -5 -47l-98 -458h-450z" />
    <glyph glyph-name="Edieresis" unicode="&#xcb;" horiz-adv-x="554" 
d="M0 0l142 667h514l-35 -167h-356l-22 -100h317l-28 -133h-317l-21 -100h396l-36 -167h-554zM273 708l23 109h103l-22 -109h-104zM479 708l23 109h103l-22 -109h-104z" />
    <glyph glyph-name="Egrave" unicode="&#xc8;" horiz-adv-x="554" 
d="M447 708l-84 167h119l44 -167h-79zM0 0l142 667h514l-35 -167h-356l-22 -100h317l-28 -133h-317l-21 -100h396l-36 -167h-554z" />
    <glyph glyph-name="Iacute" unicode="&#xcd;" horiz-adv-x="222" 
d="M32 0l141 667h159l-142 -667h-158zM243 708h-79l114 167h119z" />
    <glyph glyph-name="Icircumflex" unicode="&#xce;" horiz-adv-x="222" 
d="M322 708l-38 101l-80 -101h-120l155 167h118l84 -167h-119zM32 0l141 667h159l-142 -667h-158z" />
    <glyph glyph-name="Idieresis" unicode="&#xcf;" horiz-adv-x="222" 
d="M107 708l23 109h103l-22 -109h-104zM313 708l23 109h103l-22 -109h-104zM32 0l141 667h159l-142 -667h-158z" />
    <glyph glyph-name="Igrave" unicode="&#xcc;" horiz-adv-x="222" 
d="M283 708l-84 167h119l44 -167h-79zM32 0l141 667h159l-142 -667h-158z" />
    <glyph glyph-name="Oacute" unicode="&#xd3;" 
d="M447 708h-79l114 167h120zM569 442c0 40 -11 58 -42 58h-207c-31 0 -61 -26 -68 -58l-48 -231c0 -26 19 -44 45 -44h207c30 0 59 25 66 58zM678 208c-25 -115 -133 -208 -243 -208h-237c-54 0 -96 20 -127 61c-21 30 -32 63 -32 101c0 15 2 30 5 46l54 250
c24 116 132 209 242 209h237c92 0 159 -70 159 -162c0 -15 -2 -30 -5 -47z" />
    <glyph glyph-name="Ocircumflex" unicode="&#xd4;" 
d="M527 708l-39 101l-80 -101h-119l154 167h119l84 -167h-119zM569 442c0 40 -11 58 -42 58h-207c-31 0 -61 -26 -68 -58l-48 -231c0 -26 19 -44 45 -44h207c30 0 59 25 66 58zM678 208c-25 -115 -133 -208 -243 -208h-237c-54 0 -96 20 -127 61c-21 30 -32 63 -32 101
c0 15 2 30 5 46l54 250c24 116 132 209 242 209h237c92 0 159 -70 159 -162c0 -15 -2 -30 -5 -47z" />
    <glyph glyph-name="Ograve" unicode="&#xd2;" 
d="M487 708l-84 167h119l44 -167h-79zM569 442c0 40 -11 58 -42 58h-207c-31 0 -61 -26 -68 -58l-48 -231c0 -26 19 -44 45 -44h207c30 0 59 25 66 58zM678 208c-25 -115 -133 -208 -243 -208h-237c-54 0 -96 20 -127 61c-21 30 -32 63 -32 101c0 15 2 30 5 46l54 250
c24 116 132 209 242 209h237c92 0 159 -70 159 -162c0 -15 -2 -30 -5 -47z" />
    <glyph glyph-name="Uacute" unicode="&#xda;" 
d="M678 208c-25 -115 -133 -208 -243 -208h-237c-54 0 -96 20 -127 61c-21 30 -32 63 -32 101c0 15 2 30 5 46l98 459h158l-96 -456c0 -26 19 -44 45 -44h207c30 0 59 25 66 58l95 442h158zM447 708h-79l114 167h120z" />
    <glyph glyph-name="Ucircumflex" unicode="&#xdb;" 
d="M527 708l-39 101l-80 -101h-119l154 167h119l84 -167h-119zM678 208c-25 -115 -133 -208 -243 -208h-237c-54 0 -96 20 -127 61c-21 30 -32 63 -32 101c0 15 2 30 5 46l98 459h158l-96 -456c0 -26 19 -44 45 -44h207c30 0 59 25 66 58l95 442h158z" />
    <glyph glyph-name="Ugrave" unicode="&#xd9;" 
d="M487 708l-84 167h119l44 -167h-79zM678 208c-25 -115 -133 -208 -243 -208h-237c-54 0 -96 20 -127 61c-21 30 -32 63 -32 101c0 15 2 30 5 46l98 459h158l-96 -456c0 -26 19 -44 45 -44h207c30 0 59 25 66 58l95 442h158z" />
    <glyph glyph-name="circumflex" unicode="&#x2c6;" horiz-adv-x="435" 
d="M428 708l-39 101l-80 -101h-119l154 167h118l85 -167h-119z" />
    <glyph glyph-name="tilde" unicode="&#x2dc;" horiz-adv-x="435" 
d="M561 775c-53 -44 -97 -67 -133 -67c-18 0 -35 12 -53 34c-17 22 -35 33 -52 33c-35 0 -79 -22 -133 -67l21 100c54 45 99 67 133 67c17 0 35 -11 52 -34c18 -22 35 -33 52 -33c36 0 80 22 134 67z" />
    <glyph glyph-name="periodcentered" unicode="&#xb7;" horiz-adv-x="198" 
d="M97 271l27 125h119l-27 -125h-119z" />
    <glyph glyph-name="nonbreakingspace" unicode="&#xa0;" horiz-adv-x="277" 
 />
    <glyph glyph-name="numbersign" unicode="#" horiz-adv-x="513" 
d="M318 486l-27 -94h89l28 94h-90zM438 304l-28 -93h-83l27 93h-89l-28 -93h-83l29 93h-79l19 88h85l28 94h-93l18 87h100l28 94h83l-28 -94h89l28 94h83l-27 -94h77l-18 -87h-85l-28 -94h93l-18 -88h-100z" />
    <glyph glyph-name="exclam" unicode="!" horiz-adv-x="222" 
d="M52 0l26 125h119l-27 -125h-118zM214 208h-118l77 459h159z" />
    <glyph glyph-name="quotedbl" unicode="&#x22;" horiz-adv-x="380" 
d="M224 458h-56l13 209h119zM406 458h-55l12 209h119z" />
    <glyph glyph-name="macron" unicode="&#xaf;" horiz-adv-x="475" 
d="M151 525l21 100h395l-20 -100h-396z" />
    <glyph glyph-name="Scaron" unicode="&#x160;" 
d="M451 0h-412l36 167h388c30 0 56 26 59 60c0 23 -16 40 -38 40h-245c-50 0 -89 20 -116 60c-19 30 -29 62 -29 96c0 123 114 244 230 244h411l-35 -167h-387c-31 0 -55 -22 -60 -62c0 -20 15 -38 38 -38h245c50 0 89 -20 115 -61c20 -29 30 -60 30 -95
c0 -123 -114 -244 -230 -244zM527 708h-119l-84 167h119l38 -101l81 101h119z" />
    <glyph glyph-name="scaron" unicode="&#x161;" 
d="M527 708h-119l-84 167h119l38 -101l81 101h119zM451 0h-412l36 167h388c30 0 56 26 59 60c0 23 -16 40 -38 40h-245c-50 0 -89 20 -116 60c-19 30 -29 62 -29 96c0 123 114 244 230 244h411l-35 -167h-387c-31 0 -55 -22 -60 -62c0 -20 15 -38 38 -38h245
c50 0 89 -20 115 -61c20 -29 30 -60 30 -95c0 -123 -114 -244 -230 -244z" />
    <glyph glyph-name="brokenbar" unicode="&#xa6;" horiz-adv-x="198" 
d="M21 -83l76 354h119l-75 -354h-120zM124 396l74 354h119l-74 -354h-119z" />
    <glyph glyph-name="Yacute" unicode="&#xdd;" horiz-adv-x="554" 
d="M410 250l-54 -250h-158l53 250l-148 417h201l61 -250l168 250h202zM407 708h-79l114 167h120z" />
    <glyph glyph-name="yacute" unicode="&#xfd;" horiz-adv-x="554" 
d="M407 708h-79l114 167h120zM410 250l-54 -250h-158l53 250l-148 417h201l61 -250l168 250h202z" />
    <glyph glyph-name="Thorn" unicode="&#xde;" 
d="M553 372c0 25 -20 45 -45 45h-261l-36 -167h262c30 0 60 26 68 58zM458 108h-276l-24 -108h-158l142 667h158l-23 -109h276c55 0 97 -20 127 -61c22 -28 33 -61 33 -99c0 -154 -114 -290 -255 -290z" />
    <glyph glyph-name="thorn" unicode="&#xfe;" 
d="M553 372c0 25 -20 45 -45 45h-261l-36 -167h262c30 0 60 26 68 58zM458 108h-276l-24 -108h-158l142 667h158l-23 -109h276c55 0 97 -20 127 -61c22 -28 33 -61 33 -99c0 -154 -114 -290 -255 -290z" />
    <glyph glyph-name="multiply" unicode="&#xd7;" horiz-adv-x="448" 
d="M348 139l-71 109l-119 -109l-69 94l124 100l-81 100l110 94l71 -108l119 108l69 -94l-125 -100l82 -100z" />
    <glyph glyph-name="Euro" unicode="&#x20ac;" horiz-adv-x="646" 
d="M697 500h-244c-31 0 -62 -27 -68 -58l-8 -34h268l-28 -50h-250l-11 -50h233l-27 -50h-216l-8 -33c0 -37 8 -58 44 -58h244l-36 -167h-260c-92 0 -159 68 -159 160c0 16 2 32 6 48l11 50h-133l28 50h115l10 50h-96l28 50h79c22 102 36 142 100 197c48 41 98 62 153 62h317
z" />
  </font>
</defs>
</svg>
